<svg version="1.0" xmlns="http://www.w3.org/2000/svg" width="805.333" height="537.333" viewBox="0 0 604 403"><path d="M335.8 1.8c1.3 1.3 1.8 1.4 2 .5.2-.7.8-1.1 1.3-.8.5.4.9.2.9-.3s-1.3-.9-2.9-1c-2.8-.1-2.9 0-1.3 1.6zM332 4.5c0 .9.7 3 1.6 4.6.8 1.7 1.3 3.3 1 3.6-.2.3-.1 1.6.4 2.9.8 1.9.6 2.2-.8 1.7-.9-.4-3.5-2-5.7-3.6-3.3-2.3-4.1-2.6-4.3-1.3-.3 1.1-1.6 1.6-4.5 1.7-2.3 0-3.7.3-3.1.5.9.4 1.1 6 .2 6.9-.2.3-3 1.7-6.1 3.3-3.1 1.6-5.4 3.3-4.9 3.7.4.5-.1.5-1.1.2-1.2-.5-1.6-.3-1.1.4.4.7 0 .9-1.4.5-1.5-.5-2-.2-1.8 1.1.1 1.2-.6 1.8-2.4 1.8-1.4.1-3.6.8-4.8 1.7-2 1.3-2.1 1.6-.7 2.2 1.9.7 3.8-.1 3-1.4-.3-.5 0-1.2.6-1.6.8-.4.9-.3.5.4-1.1 1.8-.2 1.5 8.3-2.7 4.3-2.1 9.6-4.4 11.7-5.1 2.1-.7 4.5-2 5.2-2.9 1.1-1.4 1.4-1.4 2.2-.1.5.8 1 1.2 1 .7 0-.4 1.6 0 3.7.8 4.5 1.9 7.6 1.1 6.8-1.6-.4-1.1 0-2.6.9-3.5 2.1-2.1 2-4.2-.4-8.7-2.4-4.5-2.4-4.7-.4-4.7 1.4 0 1.4-.3.4-1.5-1.6-2-4-1.9-4 0zM321.5 16c.3.5 1.3.6 2.2.3 1.1-.4 1.4-.3.9.5-.4.7-.2 1.2.5 1.2.9 0 1 .3.2 1.1-1.6 1.6-6.2 0-6-2.2.1-2 1.2-2.5 2.2-.9zm-3.5 8c0 .5-.5 1-1.1 1-.5 0-.7-.5-.4-1 .3-.6.8-1 1.1-1 .2 0 .4.4.4 1zm-8.3 3.6c-.3.3-1.2.4-1.9.1-.8-.3-.5-.6.6-.6 1.1-.1 1.7.2 1.3.5zM338 5.9c0 .6.5 1.3 1 1.6.6.3 1-.1 1-.9 0-.9-.4-1.6-1-1.6-.5 0-1 .4-1 .9zm-97 5.7c3.9.7 10.3 2.5 12.7 3.6 1.2.6 2.9.8 3.8.4 1.1-.4 1.5-.2 1.3.6-.3.7-1.7 1.3-3.1 1.4-1.4.1-2.4-.2-2.2-.6.8-1.4-4.7-2.2-5.9-.9-.8.9-.8 1 .3.4.9-.5 1.2-.4.7.3-.4.7-1.4 1.2-2.3 1.2-1.2 0-1.3.3-.4 1.4 1 1.2.4 1.4-4.2 1.1-5-.3-5.5-.2-6.6 2.1-1.4 3.1-1.4 4.7-.1 3.9.6-.4.8-1 .5-1.5-.9-1.5 2.3-1.9 3.5-.4 1.5 1.6 3 1.9 3 .3 0-.5-.4-.7-1-.4-.6.3-1-.4-1-1.7v-2.2l1.6 2.3c.9 1.2 1.2 2.6.8 3-1.9 1.6-9.2 3.9-15.4 4.9-3.6.5-7.3 1.3-8.4 1.7-1.4.6-1.7.4-1.4-1.1.1-1 1.4-2.1 2.8-2.5 2-.6 2.1-.7.5-.8-1.1 0-3.1.6-4.5 1.4-1.4.8-1.9 1.4-1.1 1.5.7 0 1.1.6.8 1.4-.3.7 0 1.9.6 2.5.8.8.5 1.1-1.2 1.1-1.6 0-2.1.4-1.8 1.4.4 1 .1 1.3-.9.9-.7-.3-1.4 0-1.4.7 0 .6-.4.8-1 .5-.5-.3-1-.2-1 .4 0 .5.6 1.2 1.3 1.5.6.3.1.3-1.3 0-1.4-.4-2.8-1.1-3.1-1.5-.3-.5-1.4-.2-2.5.7-1.8 1.4-1.8 1.5.6 1 1.4-.3 1.9-.3 1.2 0-.6.3-.9 1.1-.6 1.6.4.7.2.8-.5.4-.6-.4-1.9-.2-2.7.5-1.2 1-1.3.9-.8-.7.3-1-.3-.6-1.5 1.1-1.9 2.8-2.1 2.8-2.1.7 0-2.6-.3-2.7-3.6-.6-1.6 1.1-2.3 2.3-1.9 3.3.3.9-.4.5-1.6-.9l-2.1-2.5.6 2.8c.5 2 .1 3.3-1.4 4.9l-2 2.2-.1-2.5v-2.4l-1.2 2.4c-.9 1.9-.9 2.5.1 2.9.7.2 1 .8.6 1.3-.7 1.1.3 1.1 4.3 0 2.6-.7 3.1-.7 2.6.5-.3.8-.9 1.4-1.4 1.4-.5 0-.9.7-.9 1.6 0 .8-.4 1.3-.8 1-.4-.2-1.4-.1-2.2.5-1.1.6-1.2.9-.2.9.7 0 1 .4.7 1-.3.5.3 1 1.4 1 1.2 0 2.1-.5 2.1-1.1 0-.5.5-.7 1.2-.3.8.5.5 1.1-1.1 1.7-1.2.6-2 1.6-1.7 2.4.3.8.2 1.2-.2.9-1.4-.9-3.5 1.2-2.9 2.8.5 1.2 1.5 1.5 3.4 1.2 1.6-.2 2.8-.5 2.8-.6 0-.1.9-.3 2-.5 2.1-.4 5.7-1.2 6.5-1.5.3-.1 1.2-.2 2.2-.1.9.1 1.9-.3 2.3-.9.3-.5 1.9-1 3.6-1 1.6 0 2.9-.5 2.9-1 0-.6.9-1 1.9-1 1.1 0 2.6-.7 3.5-1.5.8-.8 1.9-1.5 2.4-1.5 1.6 0 7.2-3.1 7.2-4.1 0-.5.5-.9 1-.9 1.1 0 7.1-3.9 8.1-5.3.3-.5.8-.7 1-.5.9.7 8.9-6.6 8.8-8.1 0-1.1-.2-1.2-.6-.3-.2.6-.8 1-1.3.7-.5-.3-1.6.2-2.4 1.1-.9.8-1.6 1-1.6.4s.7-1.3 1.5-1.6c.8-.4 1.2-1.1.8-1.7-.3-.6-.1-.7.6-.3.6.4 1.4 0 1.7-.8.3-.9 1-1.6 1.5-1.6.4 0 .6.6.3 1.4-1 2.7 1.7 2.8 5.1.2 1.8-1.4 3.8-2.6 4.3-2.6s2.1-1.1 3.5-2.4c1.4-1.3 2.9-2.1 3.2-1.7.4.3 1.2-.1 1.8-.9 1.7-2.2 12.4-7.6 17.7-9 2.5-.7 9-1.2 14.5-1.3 7.1 0 8.1-.2 3.5-.4-3.6-.2-6.9-.8-7.4-1.4-.6-.5-1.7-.9-2.5-.9s-4.2-1.1-7.6-2.5c-3.4-1.3-7.7-2.6-9.6-2.9-1.9-.2-6.8-.9-10.9-1.5-7.6-1-24.6-2.3-20-1.5zm12.8 9.5c.3 1.1.1 1.1-.7-.1-.6-.8-1.1-1-1.1-.4s-.7 1.1-1.5 1.1-1.5-.3-1.5-.7c0-2.2 4.2-2.1 4.8.1zm-5.8 5.3c0 .3-.4.8-1 1.1-.5.3-1 .1-1-.4 0-.6.5-1.1 1-1.1.6 0 1 .2 1 .4zm-5.2 3c-1 .7-1.5 1.6-1.1 2 .4.4 0 .4-1 0-1.1-.4-1.9 0-2.3 1-.3.9-1 1.3-1.5 1-1.2-.7-3.4 1.6-4.4 4.5-.5 1.8-.2 2.4 1.4 2.8 1.1.3 1.8.9 1.5 1.4-1 1.7-4.4-1.1-4.4-3.6 0-2.9-1.6-3.4-2.3-.8-.4 1.4-.5 1.2-.6-.5-.1-1.6.5-2.2 1.9-2.2 1.1 0 2-.4 2-.8 0-1.2 8.2-5.7 9.8-5.4.6.2 1.2-.3 1.2-.9 0-.7.3-.9.7-.5.5.4 0 1.3-.9 2zm14.6.1c-2.2 1.7-4.8 2-3.9.4.8-1.2 4.8-2.9 5.4-2.3.3.2-.4 1.1-1.5 1.9zM249 33c0 .5-.5 1-1.1 1-.5 0-.7-.5-.4-1 .3-.6.8-1 1.1-1 .2 0 .4.4.4 1zm-22 4.9c0 .5-1 1.1-2.2 1.5-1.9.5-2.1.8-.8 1.6s1.3 1-.2 1c-.9 0-1.9.6-2.2 1.2-.3.7-.4.4-.3-.7.3-2.7 1.9-4.3 5.5-5.4.1-.1.2.3.2.8zm17.7-.3c-.3.3-1.2.4-1.9.1-.8-.3-.5-.6.6-.6 1.1-.1 1.7.2 1.3.5zM217 39c0 .5-.2 1-.4 1-.3 0-.8-.5-1.1-1-.3-.6-.1-1 .4-1 .6 0 1.1.4 1.1 1zm23 1c0 .5-.8 1-1.7 1-1.5 0-1.6-.2-.3-1 1.9-1.2 2-1.2 2 0zm-28 4.5c.5-.3.8-1 .6-1.4-.3-.3.4-.7 1.4-.7 1.1 0 1.7.2 1.5.4-.2.3 0 1.3.6 2.4 1 1.8.9 1.9-1.3.7-1.3-.6-2-.8-1.6-.4.9.9-2.9 5.1-3.9 4.2-.3-.4-.1-.7.5-.7.7 0 1.2-.5 1.2-1 0-1.6-3.6.6-4.4 2.6-.8 2.1 1.5 3.8 2.7 2.1.6-.8.7-.7.4.3-.2.8-1.2 1.4-2.1 1.4-.9-.1-1.6.6-1.6 1.7 0 1.6-4.3 6.9-5.6 6.9-.9 0 .9-2.4 2.7-3.7 1.3-1 1.5-2 .9-4.8-.7-3.2-.5-3.7 2.4-6 1.9-1.5 2.5-2.5 1.6-2.5-1.3 0-1.3-.1 0-1 1-.6 1.1-1 .3-1-.7 0-1.3-.5-1.3-1.2 0-.6.8-.4 1.9.6 1.1 1 2.5 1.5 3.1 1.1zm21 1c-.7.9-1.5 1.3-1.7 1.1-.7-.7.7-2.6 1.9-2.6.6 0 .6.6-.2 1.5zm-8.8.9c.7-.4.8-.2.4.4-.4.6-1.3.9-2.1.6-.8-.4-1.2-1.1-.8-1.7.5-.8.8-.7 1.1.1.2.7.9.9 1.4.6zm11.2 1.8c-.5.8-.2.9 1 .5 1.1-.4 1.5-.3 1.1.4-.4.5-1.2.8-1.8.6-.7-.2-1.7.3-2.2 1-.9 1.2-1.1 1-1.2-.7-.1-1.1.2-1.8.8-1.5.5.4.9.1.9-.4 0-.6.5-1.1 1.1-1.1.5 0 .7.5.3 1.2zM224.5 50c-.8 1.3.9 2 2.5.9 1.3-.7 1.3-.9 0-.9-1.2-.1-1.1-.3.3-1.1 2.1-1.2 3.7-.4 3.6 1.9 0 1.4-.2 1.3-.9-.3-.7-1.8-.9-1.6-1.5 1.2s-3.5 5.6-3.5 3.4c0-.5.6-1.1 1.3-1.4.6-.2-.3-.4-2-.3-2.8.1-3.3.5-3.3 2.5 0 1.3-.3 2.1-.7 1.8-.3-.4-1.2-.2-2 .4-.8.7-1.3.8-1.3.1 0-.5.8-1.3 1.7-1.6 1.2-.5 1.4-.9.5-1.8-2-2-4.7 1.4-3.3 4 .6 1.2.7 2.3.3 2.6-1.4.8-3.1-.9-2.8-2.8.3-2 5.3-7.6 6.8-7.6.4 0 .8-.6.8-1.4 0-.9.7-1.2 2-.9 1.1.3 1.8.9 1.5 1.3zm-28.8 6.3c.2 1.8.4 5.1.6 7.4.3 2.8.1 4-.7 3.7-.7-.3-1.3-1.4-1.3-2.6-.1-1.2-.7-2.4-1.4-2.8-.6-.5-.8-1.3-.4-2.1 1.3-2 1.4-7.3.2-8.9-.6-.8-.2-.7.9.3 1 1 2 3.2 2.1 5zm5.3-4.4c0 .6-.4 1.3-1 1.6-.5.3-1-.1-1-.9 0-.9.5-1.6 1-1.6.6 0 1 .4 1 .9zm10.5 8.1c-.3.5-1 1-1.6 1-.5 0-.9-.5-.9-1 0-.6.7-1 1.6-1 .8 0 1.2.4.9 1zm-13.4 3.3c-1 .9-1.1.8-.5-.6.3-1 .9-1.5 1.2-1.2.3.3 0 1.1-.7 1.8zm13.4-50.2l-4 .7 4.7-.1c4.6-.2 7.2 1.5 4.5 2.7-1.6.8 3.2-.5 6.1-1.5 5.8-2.2-2.4-3.5-11.3-1.8zm17.9 0c-.3.6-.1 1.6.6 2.2 1 .9 1.2.8.7-.5-.4-1.1 0-1.8 1.1-2.1 1.6-.4 1.6-.5 0-.6-.9 0-2 .4-2.4 1z"/><path d="M237 14.9c0 .5-.3 1.7-.6 2.5-.5 1.2-.2 1.5 1 1 1-.4 1.5-1.2 1.2-2-.3-.7 0-1.5.7-1.8.7-.2.4-.5-.5-.5-1-.1-1.8.3-1.8.8zm-10.8 1c-1.2.7-1.2 1.2 0 3 1.1 1.8 1.1 2.3-.2 3.1-.8.5-1 1-.5 1.1 5.3.7 7.6.5 8.6-.7 1.5-1.8.9-2.4-2.7-2.8-1.6-.2-3.3-.4-3.7-.5-.5 0-.5-1-.2-2.1.7-2.2.6-2.3-1.3-1.1zM213.5 19c-.3.5-.2 1 .4 1 .5 0 1.3-.5 1.6-1 .3-.6.2-1-.4-1-.5 0-1.3.4-1.6 1zm9.8.7c-1.5.5-1.7 2.3-.4 2.3.5 0 1.1-.7 1.5-1.5.3-.8.4-1.5.3-1.4-.1 0-.8.3-1.4.6zm-.3 6.9c0 .2.9.8 2 1.4 1.1.6 2 .7 2 .2 0-.6-.9-1.2-2-1.5-1.1-.3-2-.3-2-.1zm-14.8 3.7c.2 2.5 4.8 3.5 4.8 1 0-.8-.4-1.1-1-.8-.5.3-1 .2-1-.3 0-.6-.7-1.2-1.5-1.6-1.1-.4-1.4.1-1.3 1.7zm-2.7.7c-.3.5-.1 1 .4 1 .6 0 1.1-.5 1.1-1 0-.6-.2-1-.4-1-.3 0-.8.4-1.1 1zM329 38c-.6 10.3.1 37.5 1 37.8.6.2 1 .7 1 1.1 0 .3-3.4.5-7.5.3-8.8-.5-19.3 1.2-24.4 3.8-5.5 2.8-12.5 9.6-11.7 11.5.3.9.2 1.3-.4 1-.6-.3-1-.1-1 .5s-.5.8-1 .5c-.6-.4-.9-.3-.8.2.1.4-.6 3.2-1.5 6.2-2.3 6.7-1.7 8.6 2.4 7.7 1.9-.4 3.1-.1 3.3.7.2.6.9 3.6 1.6 6.5.7 2.9 1.9 6.6 2.7 8.2 1.7 3.5 1.4 30.2-.4 33.5-.6 1.1-1.3 4.9-1.6 8.5-.6 6.8-2.2 15.1-3.8 18.5-2.4 5.4-4.9 13.2-4.9 15.2 0 1.2-.4 2.4-.9 2.7-.5.3-1.1 2-1.4 3.8-1.3 7.4-2 9.8-2.7 9.8-.4 0-1.9 2.4-3.3 5.2-1.3 2.9-3.4 6.2-4.6 7.2-1.1 1.1-2.1 2.3-2.1 2.8s-1 2.4-2.3 4.1c-1.2 1.8-2.7 4.1-3.3 5.2-1.4 2.6-8.7 5.2-9.3 3.4-.2-.7-1.4-2.3-2.6-3.5-1.2-1.2-3.2-4.1-4.5-6.5-2.1-4-2.4-6-2.8-20.9-.3-11.6.1-19.4 1.2-26.5.8-5.5 2-13.6 2.6-18 .7-4.4 1.8-8.7 2.6-9.6.8-.9 1.7-5 2-9.3.5-5.9 1-7.6 2.1-7.2.7.3 1.3.2 1.3-.3s-.9-1.1-1.9-1.4c-2.3-.6-5.1 2.1-5.1 4.7 0 .9-.4 1.5-.9 1.1-.5-.3-1.3 0-1.7.6-.5.8-.3.9.6.4 1-.6 1.2-.4.7.9-.4 1-.7 2.1-.7 2.4 0 .4-.4.1-.9-.6-.7-1.1-.9-1.1-1.4.1-.3.9.1 1.4 1.1 1.3 1 0 1.7.3 1.7.9 0 .5-.7 1-1.5 1s-1.5.7-1.6 1.5c-.2 3-.4 3.2-1.9 2-1.2-1-1.5-.9-1.5.5 0 1-.3 1.5-.7 1.1-.4-.4-2.4 2.8-4.5 7.1-4.2 8.7-4.9 9.1-1.7 1.1 5.5-14.3 16.1-32.4 18.1-31.2.7.4.8.3.4-.5-.5-.7 3.4-6.4 9.6-14.4 5.7-7.3 12.9-16.8 16-21.2 3.2-4.4 7.7-10.3 10.2-13l4.5-5-2.2-1.7c-4.8-3.7-13.1-7.2-18.2-7.6-5.7-.5-15.5 1.4-15.5 2.9 0 .5-.6.9-1.3.9-.7 0-2.2.8-3.3 1.8-1.6 1.5-7.9 5.9-15.7 11.2-1.3.9-.4-.6 2-3.6 2.3-2.8 3.9-5.4 3.6-5.8-.4-.4.1-.4 1.2 0 2 .7 2 .7 0-1.6-1.3-1.5-1.5-2.1-.5-1.6.8.4.6 0-.4-.8-3.7-3-12.2-2.3-19.6 1.4-5.2 2.6-14.2 9.9-22.1 17.8-2 2.1-6.1 5.7-9 8.2-5.3 4.5-11.1 10.3-17.9 18.2-1.9 2.2-4.4 5-5.6 6.1-3.1 3.2-8.6 11.7-7.6 11.7.5 0 1.8-1.2 2.8-2.7 1-1.5 3.1-3.8 4.7-5.2 1.5-1.4 2.7-3.2 2.7-3.9 0-.8.6-1.2 1.4-.9.8.3 2-.1 2.6-.9.7-.8 2.3-1.4 3.6-1.4 1.3 0 3.4-.5 4.8-1.1 4.2-2 7-.5 9.9 5.4 4.8 9.9 6.3 28.6 2.8 35.5-1 2-2.6 5.3-3.6 7.2-1 1.9-2.5 4.4-3.5 5.5-6.1 7.2-12.9 26.5-18.4 51.5-4.4 20.6-6.8 29.6-8.1 31-2.5 2.7-7.1 1.4-9-2.6-.8-1.8-2-3.6-2.5-3.9-.6-.3-1-1.6-1-2.8 0-1.2-.9-4.2-2-6.6-1.1-2.3-2.2-6.6-2.5-9.4-.3-2.9-1.2-8.6-2.1-12.7-.8-4.1-1.6-11-1.6-15.3 0-4.3-.4-7.5-.9-7-2.8 2.8-3.2 42.7-.5 53.3.9 3.6 2 8.9 2.6 11.8.5 3 1.6 6.8 2.4 8.5 3 6.8 6.6 17.4 6.6 19.5 0 1.2 2.3 6.6 5 11.9 2.8 5.4 5.8 12.3 6.7 15.3 1.4 4.8 3.6 9.4 5.3 11 .3.3 1.2 1.8 1.9 3.3.8 1.5 3 4.5 4.8 6.7 1.8 2.1 3.3 4.2 3.3 4.7s3.3 4.3 7.4 8.5c4.1 4.2 7.2 7.8 6.9 8.2-.3.3.6 1.1 2 1.7 1.5.7 2.4 1.6 2.1 2-.3.5 0 .9.6.9s2.2 1.1 3.6 2.5 4.7 3.6 7.2 4.9c2.6 1.3 6.7 3.3 9.1 4.6 8.9 4.5 15.8 5.3 44.8 5.5 15 .1 27-.1 26.8-.4-.2-.3-2.1-1.5-4.2-2.6s-4-2.2-4.3-2.5c-.3-.4-2.2-1.6-4.2-2.9-2.1-1.2-3.8-2.7-3.8-3.2s1.8.2 3.9 1.5c2.1 1.4 4.2 2.2 4.7 1.8.4-.4.4-.2 0 .5s1.4 2.1 5 3.7c4.1 1.9 5.5 3 5 4.1-.3.9 0 1.5.9 1.5s2.3.4 3.3 1c6.4 3.5 33.3 6.5 49.7 5.6 13.4-.8 29.9-3.3 30.3-4.6.2-.6 1.1-1 2-1 2.5 0 15.3-4.5 20.9-7.4 9.3-4.7 20.7-14.1 27.6-22.7 3.7-4.6 7.3-9.6 8-11.1.6-1.6 1.5-2.8 1.9-2.8.5 0 .8-.6.8-1.3 0-.6.7-2.6 1.6-4.2 2.7-4.9 5.6-12.8 5.8-15.8.2-1.6.9-3.2 1.6-3.7.7-.4.9-1.3.5-2s-.3-1.5.3-1.9c.5-.3 2.1-5.3 3.6-11 2.7-10.7 3.2-14.1 1.5-10.6-.8 1.7-.9 1.7-.4-.5 1-4.2 1.5-19.1.6-18.6-1 .6.2-8.5 1.4-10.4.8-1.3.7-1.3-.8-.1-1.9 1.5-2.2.8-.6-2 .7-1.4.7-3 0-5.2-.5-1.8-1.2-7.9-1.5-13.7-.2-5.8-.9-11.6-1.4-13-1-2.6-3.4-15.6-3.7-20-.1-1.4-.6-4.1-1.2-6-2-6.4-2.4-10.2-1-9.3.6.4.4-.5-.6-2.1-1-1.5-2.7-6-3.7-9.9-1.8-6.7-3.5-11.3-6.2-16.2-.6-1.1-2.2-4.3-3.6-7-1.3-2.8-3.8-7.1-5.4-9.7-1.8-2.8-2.7-5.2-2.2-6 .6-1.1.5-1.1-.8 0-1.3 1-1.7 1-2.2-.4-.4-.9-.4-1.9-.1-2.2.3-.3.5.1.5.8 0 .7.2 1.1.5.8.9-.8-.6-3.8-1.6-3.2-.5.3-.9-.2-.9-1 0-.9-.4-1.6-1-1.6-.5 0-1-.6-1-1.3 0-.8-.9-2.2-2-3.2s-1.7-2.2-1.4-2.7c.3-.4 0-.7-.7-.6-.6.2-1.4-.3-1.7-1.1-.3-.9 0-1.1.9-.6.8.5.3-.3-1.1-1.7-3.6-3.5-6-6.7-6-7.7 0-.6-.9-1.3-2-1.6-1.1-.3-2-1.1-2-1.6 0-2.4-22-24.3-30.5-30.3-6.7-4.8-10-6.2-16.5-7.5-4.5-.9-4.5-.9-.9-1 2-.1 5.1.4 7 1.1 4.1 1.3 13 6.9 16.7 10.3 1.5 1.4 3 2.5 3.3 2.5.3 0 4.3 4.2 8.9 9.2 4.5 5.1 11.7 13.1 16 17.8 9.8 10.6 16.6 19.5 23.3 30.8 5.9 9.6 13.7 25.3 16.2 32.2 9.8 27 11.9 37.3 13.1 64 .6 12.3 1 14.3 2.6 15.3 1 .7 1.8 1.7 1.8 2.4s.5 1.3 1 1.3c.6 0 1 .6 1 1.4 0 1.5 3.9 1 4.1-.5.1-.5.3-1.4.4-1.9.1-.6.3-2.9.4-5.3l.2-4.2 1.9 4.5c2.2 5.3 2.6 4.2.6-2.3-1.2-3.9-1.2-4.5 0-4 1 .4 1.2 0 .8-1.1-.4-1.1-.1-1.6 1.1-1.6 1.2 0 1.5-.5.9-2.3-.3-1.2-1.1-2.8-1.7-3.5-.7-.9-.7-1.6.1-2.4.9-.9 1.2-.8 1.2.5 0 2.7 2.9 2 3.6-.8.4-1.4.4-2.9 0-3.2-.3-.4-.6.1-.6 1s-.4 1.7-1 1.7c-1.3 0-1.3-.6 0-3.1 1.3-2.4.2-2.5-1.6-.2-1.2 1.6-1.3 1.5-1.4-1 0-1.5.5-2.7 1-2.7.6 0 1-.4 1-1 0-.5-.8-.6-1.7-.3-1.6.6-1.6.5-.4-1.1 1-1.2 1.1-2 .4-2.4-.6-.4-1.3-1.6-1.5-2.7-.2-1.1-1-1.9-1.7-1.7-.7.1-1-.2-.6-.8.4-.7 1.2-.7 2.5 0s2.1.7 2.6-.2c.4-.7.3-.8-.4-.4-.8.5-1.2 0-1.2-1.3 0-1.1-.9-2.5-2.1-3.1-1.1-.7-1.8-1.4-1.5-1.8.4-.3 1.9.7 3.5 2.2 2.6 2.5 3.2 2.7 4.8 1.5 2.1-1.6 2.9-4.9 1.3-4.9-.6 0-.8-.5-.5-1 .3-.6-.4-1.1-1.7-1.1-1.7-.1-1.8-.3-.5-.6.9-.2 1.5-.9 1.1-1.4-.3-.5-.9-.7-1.3-.5-1.3.8-.9-2.8.5-4.8 1.3-1.9 1.3-1.9 2 0 .4 1 .9 2.2 1.1 2.6.2.5 0 .8-.6.8-.5 0-1.2-.8-1.4-1.8-.4-1.4-.5-1.4-.6-.1 0 .9.5 2.2 1.2 2.8 1.1.8 1.6.5 2.5-1.4.7-1.5.8-2.5.2-2.5-.6 0-.9-.3-.8-.8 0-.4-.2-1.5-.6-2.4-.6-1.4-1.2-1.5-2.8-.7-1.8 1-1.8.9-.8-1 .9-1.7.8-2.2-.5-2.7-.8-.3-1.5-1.2-1.5-1.9s-1.3-1.5-3-1.7c-1.6-.3-3-.1-3 .4 0 .4-.5.8-1 .8-1.3 0-.9-2.1.8-3.8 2.1-2.3 1.3-3.1-2.5-2.9-2.1.1-3.7-.2-3.6-.8.1-.6.3-1.7.6-2.5.2-.8.2-1.2 0-.8-.9 1.6-2 .7-1.9-1.5.1-2 1.8-4.7 3-4.7.3 0 1.7 2.1 3.2 4.6 1.6 2.8 3.2 4.3 4 4 .7-.3 1.6-.1 1.9.4.3.4-.1 1-.7 1.2-.8.3-.1 1.6 2 3.7 1.7 1.8 3.2 3.7 3.2 4.2s.7.9 1.6.9c.8 0 1.2-.5.9-1-.9-1.5.4-1.2 2.1.5 1.4 1.3 1.3 1.5-.6 1.5s-2 .1-.5 2.3c1.6 2.5 6.9 3.5 8 1.6.3-.5 0-.6-.8-.3s-1.7-.1-2-.9c-.4-1 .3-1.2 2.4-.9 1.8.3 2.9 1 2.9 2.1 0 1.4.2 1.4 1 .1.7-1.1.3-1.8-1.8-3-1.5-.8-3.2-1.3-3.8-1.2-.6.1-1.8-.5-2.5-1.5-1.2-1.5-1.2-1.6.4-1 .9.3 1.7.2 1.7-.3 0-.6-.5-1-1.1-1-.5 0-.7-.5-.3-1.2.5-.8 1.3-.4 2.6 1.1 1 1.3 1.8 1.9 1.8 1.4s-.5-1.4-1.2-2.1c-.7-.7-.8-1.2-.2-1.2.6 0 1.6.6 2.3 1.2 1 1.1 1.1 1 .6-.5-.4-.9-1-1.7-1.4-1.7-.4 0-1.3-1.2-1.9-2.6-.7-1.5-1.7-2.2-2.4-1.8-.7.4-.8.3-.4-.4s.3-1.2-.3-1.2c-.5 0-1.2.8-1.5 1.8-.5 1.4-1.4 1.7-4.6 1.4-4-.4-5-1.4-2.8-2.8.7-.4.8-.3.4.5-.6.8.3 1.1 2.8.9 4-.2 5.7-2.8 3.6-5.4-1.1-1.2-1.4-1.2-2.5.3-.7 1-1.1 2.1-.9 2.5.3.5 0 .8-.5.8-1.2 0-1.5-3.3-.4-4.4.4-.4.6-2.4.4-4.5-.2-2.8.2-4 1.4-4.5 1.3-.4 1.4-1 .5-2.6-.7-1.4-.8-2.6-.1-3.8 1-1.6 1-1.6 1.1 0 0 1 .4 1.8 1 1.8.5 0 .7.7.3 1.6-.3.9-.1 1.9.6 2.3.8.5.7 1.6-.5 4-1.6 3.1-1.5 3.4.3 5.3 1.7 1.7 2.2 1.8 3.4.5.8-.7 1.9-1.2 2.4-1 .6.1 1.6-.1 2.4-.6 1.2-.8 1.2-1.2.2-2.5-1.8-2.1-3.8-2-4.4.1-.3 1.3-.5 1.4-.6.3 0-.8.4-2.2.9-3 .7-1.2 1.2-1.2 2.2-.2 1.8 1.8 2.8 1.5 2.8-.9 0-1.1-.4-1.7-1-1.4-.5.3-1-.3-1-1.4 0-2-3.2-3.7-5-2.6-.5.3-1 .1-1-.6 0-.8 1-.9 3.3-.4 5.2 1.1 6 1.1 6.5-.5.4-1.3.3-1.3-1-.2-1.1.9-1.8 1-2.3.2-.3-.5-.1-1 .5-1s.8-.5.5-1.1c-.4-.5-2.1-.8-3.8-.5l-3.2.6 2.8-1.1c1.5-.6 2.7-1.5 2.7-2 0-.6-.4-.8-.9-.4-.6.3-1.5-.4-2.1-1.5-.9-1.6-.8-2 .5-2 .9 0 1.3.4 1 1-.3.5.1 1 1 1 .8 0 1.9 1 2.4 2.2.6 1.8.9 1.9 1.4.5.4-1 .2-1.7-.5-1.7-.6 0-.5-.6.3-1.6 1.2-1.5 1.1-1.6-.7-1-1.5.4-2.3.2-2.7-.8-.4-1.1-.1-1.3 1-.9 1.3.5 1.5.2.9-1.2-.3-1-.2-2.1.4-2.5 1.7-1.1 0-4-2.4-4-1.8 0-1.9-.2-.6-1.1 1.2-.9 1.1-1-.5-.5-1.9.6-1.9.5-.2-.8 1.5-1.2 1.6-1.8.8-3.5-.6-1.1-1.1-2.9-1.1-4 0-1.2-.9-3-2-4.1-1.1-1.1-1.9-2.1-1.7-2.3.3-.5-4.3-6.5-7-9.2-1.3-1.2-2.3-2.6-2.3-3.1-.1-1.2-3.6-5.4-4.5-5.4-.4 0-3.3-2.5-6.4-5.6-9.7-9.7-13.1-12.1-15.1-10.9-.6.3-.7-.1-.4-.9.3-.9.1-1.6-.5-1.6-.5 0-2.3-1.2-3.9-2.8-3.7-3.5-7.5-6.2-8.4-5.9-.3.1-1.6-1-2.7-2.5-1.2-1.5-3.8-3.7-5.9-4.9-2-1.3-4.1-2.7-4.7-3.1-2.1-1.7-14.8-7.8-16.1-7.8-.8 0-1.4-.5-1.4-1 0-.6-1.2-1.5-2.6-2-1.4-.6-8.3-3.8-15.3-7.2-12.1-5.8-29.2-11.7-35.6-12.1l-3-.3.4 7.4c.2 4.8-.3 10.4-1.5 15.8-1.6 7.2-2.2 8.4-3.9 8.4-1.1 0-3 .3-4.1.6-2.3.6-2.5-.7-5.2-32.1-.6-6.7-1-8.5-1.2-5.5zm5.5 41.8c-.3.3-1.1 0-1.8-.7-.9-1-.8-1.1.6-.5 1 .3 1.5.9 1.2 1.2zm101.6 10.6c1.2-.7 1.1.7-.1 2.6-.6.9-1 1-1 .3 0-.6-.2-1.7-.3-2.5-.2-.7-.2-1 0-.5.3.4.9.5 1.4.1zM443 97c1.5 1.3 1.8 2 .9 2-1.8 0-3.3-1.2-3.6-2.8-.4-1.6 0-1.5 2.7.8zm-94 2c.6 1.1.8 2 .6 2-.3 0-1-.9-1.6-2-.6-1.1-.8-2-.6-2 .3 0 1 .9 1.6 2zm86.4 2.9c-.7.8-3.5-.9-2.9-1.9.4-.6 1.1-.5 2 .3.7.6 1.1 1.4.9 1.6zm13-1.3c.3.8.2 1.2-.4.9-.6-.3-1-1-1-1.6 0-1.4.7-1.1 1.4.7zM360 111.5c1.4 1.9 1.4 1.9-.5.5-2.7-2.1-6.4-6.3-6.5-7.4 0-.9 4.2 3.3 7 6.9zm81.5-6.5c-.3.5.5 2.5 1.9 4.3l2.5 3.3-3.6 1.7c-2 .9-3.9 1.5-4.1 1.3-.2-.2 1-1 2.6-1.7 3.1-1.4 3.2-2.8.5-6.1-1.3-1.5-1.1-3.8.3-3.8.3 0 .2.4-.1 1zm14.5 2.7c1.1 1 .5.9-2-.3-4.5-2.2-5.2-2.8-2-1.9 1.4.4 3.2 1.4 4 2.2zm-5 6.8c1.4.8 2.1 1.4 1.5 1.4-.5 0-2.1-.6-3.5-1.4-1.4-.8-2-1.4-1.5-1.4.6 0 2.1.6 3.5 1.4zm-14 .5c0 .5-.8 1-1.7 1-1.5 0-1.6-.2-.3-1 1.9-1.2 2-1.2 2 0zm20 2.9c0 .4 2.1 2.5 4.7 4.5 2.5 2 4.4 3.6 4 3.6-.3 0 0 1.2.8 2.6 1 2 1.1 3.2.2 5.1-1 2.2-1.5 2.4-5.2 1.8-2.2-.3-4.4-1-4.9-1.5s.4-.7 2.2-.4c1.7.3 3.3 0 3.7-.6.5-.8 1.1-.8 2.1.1 1.1.9 1.4.7 1.4-1 0-1.1-.5-2.1-1.1-2.1-.5 0-.8-.4-.5-.9.9-1.4-.5-4.2-1.7-3.4-.5.3-.7.1-.3-.5.3-.6.2-1.3-.3-1.6-1.3-.8-6.2 3.4-5.5 4.6.4.7.2.8-.4.4-.8-.5-1.2.3-1.2 2.3 0 2.9-.3 3.1-3.6 3.1-1.9 0-4.4.5-5.4 1-1.5.8-2.1.6-3-.9-1.4-2.6-1.3-3.8.2-2.3 1.7 1.7 2.8 1.5 2.8-.6.1-1.6.1-1.6 1.1 0 1.5 2.6 5.9 2.4 5.9-.2 0-1.2 1.2-3.2 2.6-4.5 1.5-1.4 2.3-2.5 1.9-2.5-.4 0-.2-.7.5-1.5 1.2-1.4.7-2-1.5-1.5-.5.1-.7-.2-.3-.6.4-.4.3-1.3-.3-2.1-.9-.9-.8-1.3 0-1.3.6 0 1.1.4 1.1.9zm14 2.4c0 .5-.4.5-1 .2-.5-.3-1-1.4-1-2.3 0-1.5.2-1.5 1-.2.5.8 1 1.9 1 2.3zm-42 2.2c0 .5-.5.3-1-.5s-1-2-1-2.5c0-.6.5-.3 1 .5s1 1.9 1 2.5zm42.5.5c-.3.5-1.2 1-1.8 1-.7 0-.6-.4.3-1 1.9-1.2 2.3-1.2 1.5 0zm-27.8 2.6c-.3.3-1.2.4-1.9.1-.8-.3-.5-.6.6-.6 1.1-.1 1.7.2 1.3.5zm-4.7.8c0 .3-.4.8-1 1.1-.5.3-1 .1-1-.4 0-.6.5-1.1 1-1.1.6 0 1 .2 1 .4zm2 4.7c0 .6-.4.7-1 .4-.5-.3-1-1.1-1-1.6 0-.6.5-.7 1-.4.6.3 1 1.1 1 1.6zm37 1.3c0 .3-.4.8-1 1.1-.5.3-1 .1-1-.4 0-.6.5-1.1 1-1.1.6 0 1 .2 1 .4zm-21 10.7c.3.4 1.5.9 2.8 1.3 1.3.4 1.9 1.2 1.6 1.8-.5.8-.1.9 1.2.4 1.4-.5 1.6-.4.8.4-.9.9-1.7.9-3.4 0-1.6-.8-2.5-.8-3.5 0-.8.7-1.5.7-1.9.1-.3-.5-.1-1.1.5-1.3.6-.2.2-1.4-1-3-1.2-1.4-2.1-3-2.1-3.4 0-.6 3.7 2.1 5 3.7zm24-3.5c0 .8-1.9 1.3-2.4.6-.3-.5.1-.9.9-.9s1.5.2 1.5.3zm-3 2c0 .2-.7.4-1.5.4s-1.5-.4-1.5-1c0-.5.7-.7 1.5-.4.8.4 1.5.8 1.5 1zm6.6 6.6c1.3 2.4 1.2 2.7-1.2 4.2-2.5 1.7-4.4 1.4-4.4-.7 0-.7.4-.6 1 .3.9 1.3 1.4.7 1.1-1.2 0-.4.7-.4 1.6-.1 1.2.5.9-.4-1-3.2-1.4-2.1-2.3-4.3-2-4.8.6-1.1 2.5 1.1 4.9 5.5zm-19 2.5c2.2 2.1 6 3 4.9 1.3-.5-.8 0-.7 1.3.1 1.7 1 2.3 1 3.6 0 .9-.8 1.6-.9 1.6-.3 0 1.3-2.5 2.2-6.1 2.2-1.6 0-2.9.3-2.9.6s1.6 2.2 3.5 4.1c2.9 2.9 3.3 3.8 2.4 5.5-.6 1.1-1.7 1.7-2.5 1.4-.8-.3-1.4-.1-1.4.4 0 .6-.8 1-1.8 1-2.2 0-3.3.9-2.6 2.2.3.5 1.2.4 1.9-.2.8-.6 2.8-1.3 4.5-1.5 2.8-.4 3-.2 1.9 1.2-.8.8-1.2 2.8-1.1 4.4.3 2.7.3 2.8-3 1.9-4.4-1.3-11.5-1.2-14 .1-1.8 1-2 .9-1.5-.6.4-.9.7-2.2.7-2.8 0-.8.4-.7.9.2.5.7 1.4 1 2 .7.6-.4.9-1.2.6-1.7-.4-.5-.1-1.7.4-2.6.8-1.5 1.1-1.5 1.2-.3.1.8 0 2.2-.1 3-.1 1 .3.9 1.4-.5 1.4-1.8 1.5-1.9 1.6-.2 0 1 .5 1.5 1.1 1.2.6-.4.8-1.3.5-2.1-.3-.7-.1-1.6.4-1.9.6-.4 1-1.1 1-1.7 0-.6-.7-.5-1.7.3-1.6 1.3-1.6 1.2 0-1.4 1.9-2.9 1.5-4.7-.9-4.7-.9 0-1.4 1.1-1.5 3.2 0 1.8-.3 2.6-.6 1.8s-1.1-1.8-1.7-2.2c-.8-.5-.7-.8.2-.8.6 0 1.2-.7 1.2-1.6 0-.8-.4-1.2-1-.9-.5.3-1 .2-1-.4 0-.5 1.4-1.2 3-1.6 2.7-.6 2.9-.9 1.8-2.3-1-1.2-1-1.4 0-.8 1.8 1.1 1.5-1.4-.5-3.6-2.1-2.3-.3-2.4 2.3-.1zm3.4-.7c0 .5-.4 1-1 1-.5 0-1-.5-1-1 0-.6.5-1 1-1 .6 0 1 .4 1 1zm-16.6 3.6c.3.8.2 1.2-.4.9-.6-.3-1-1-1-1.6 0-1.4.7-1.1 1.4.7zm-214.7 8.6c-.3.8-.6.5-.6-.6-.1-1.1.2-1.7.5-1.3.3.3.4 1.2.1 1.9zm-9 17c-.3.8-.6.5-.6-.6-.1-1.1.2-1.7.5-1.3.3.3.4 1.2.1 1.9zm-1.7 5.5c-1.1 1.7-1.1 1.7-.6 0 .3-1 .6-2.4.7-3 0-.9.2-.9.5 0 .3.7 0 2-.6 3zm254.4 2.4c-.2.4.2 1 .8 1.2.8.4.7.6-.3.6-.9.1-1.9-.5-2.2-1.2-.3-.8.1-1.4.9-1.4.7 0 1.1.4.8.8zm-255.7 3.6c-.3 1-.5.4-.5-1.2 0-1.7.2-2.4.5-1.8.2.7.2 2.1 0 3zm-2 8.5c-.3.7-.5.2-.5-1.2s.2-1.9.5-1.3c.2.7.2 1.9 0 2.5zm241.3.6c0 1-.3 1-1.4 0-.7-.7-1.1-1.9-.8-2.6.4-1.1.6-1.1 1.3 0 .5.7.9 1.9.9 2.6zm-242.3 6.9c-.3 1-.5.4-.5-1.2 0-1.7.2-2.4.5-1.8.2.7.2 2.1 0 3zm238.3 5c-1.1 1.7-1.1 1.7-.6 0 .3-1 .6-2.4.7-3 0-.9.2-.9.5 0 .3.7 0 2-.6 3zm-239.3 3.5c-.2 1.3-.4.5-.4-1.7-.1-2.2.1-3.2.4-2.3.2 1 .2 2.8 0 4zm-1 7c-.3.7-.5.2-.5-1.2s.2-1.9.5-1.3c.2.7.2 1.9 0 2.5zm0 9c-.3.7-.5.2-.5-1.2s.2-1.9.5-1.3c.2.7.2 1.9 0 2.5zm0 6.8c-.3 2.7-.2 5.2.4 5.5.5.4.9 1.8.9 3.3 0 1.5.7 6.1 1.6 10.2 2 9.2 3.3 17.1 4 23 .3 2.5 1.2 5.5 2 6.7.9 1.4 1.2 3.3.8 4.8-.4 1.6-.2 2.5.6 2.5.6 0 1 .6.7 1.2-.2.7 0 2.4.6 3.8.5 1.4 1.4 4.5 1.9 7s1.2 5.8 1.5 7.4c.4 2.1.8 2.5 1.5 1.5.5-.9.7.1.3 2.6-.5 3-.4 3.6.4 2.5 1.3-1.9 1.4-.9.2 2.4-.8 2-.5 2.9 1.4 5.1 2.3 2.4 2.8 3.7 3.8 9 .2 1.1.9 1.9 1.6 1.7.9-.2 1.1.3.7 1.3-.3.9.5 3.3 1.9 5.5s2.2 4 1.8 4c-1.4 0-11.3-17.4-15.2-26.6-8.4-19.6-12.7-36.5-14.1-56.4-1.3-17.9-1.3-33 .1-33 .8 0 1 1.6.6 5zm247-1.8c-.3.8-.6.5-.6-.6-.1-1.1.2-1.7.5-1.3.3.3.4 1.2.1 1.9zm-3 12c-.3.8-.6.5-.6-.6-.1-1.1.2-1.7.5-1.3.3.3.4 1.2.1 1.9zm-15 10c-.3.8-.6.5-.6-.6-.1-1.1.2-1.7.5-1.3.3.3.4 1.2.1 1.9zm-196.3 96l2.7 4.3-3.1-3.5c-2.7-3-3.7-5-2.6-5 .2 0 1.5 1.9 3 4.2zm11.1 11.6c3.2 2.9 5.5 5.5 5.3 5.8-.3.2-3.4-2.3-6.9-5.6-3.5-3.4-5.9-6-5.3-5.8.6.2 3.7 2.7 6.9 5.6z"/><path d="M464.6 157.9c-1.7.6-1.7.8-.3 1.4.8.3 2.1 1.6 2.7 2.8.8 1.5.9 1.9.1 1.5-.6-.4-1.1-.3-1.1.3 0 1.8 2.1 2.3 3.7.9.9-.7 1.8-1.2 2-1.1.1.2.3.1.3-.2v-1.6c0-.6-.7-.9-1.4-.6-1 .4-1.3.1-.9-.9.3-.7 0-1.4-.7-1.4-.6 0-.8-.5-.5-1 .7-1.2-1.1-1.2-3.9-.1zM468 170c0 .6.7 1.3 1.5 1.6.8.4 1.2 1 .9 1.5-.3.5 0 .9.5.9.6 0 1.1-.7 1.1-1.5s-.6-1.5-1.2-1.5c-.9 0-.8-.4.2-1 1.2-.8 1.1-1-.7-1-1.3 0-2.3.5-2.3 1zM287.5 37.9c-.8.7-.6 2.1.3 2.1.5 0 1.6-.6 2.6-1.3 1.6-1.2 1.6-1.3-.4-1.3-1.1 0-2.3.2-2.5.5zm-4 3.1c.3.5-.3 1-1.4 1-1.2 0-2.1.4-2.1 1 0 .5-.6 1-1.3 1-.7 0-1.8.9-2.5 2s-1.9 2-2.8 2c-.8 0-1.3.4-1 .8.3.5-1.6 2.6-4.2 4.7s-5.6 5-6.7 6.4c-1.1 1.3-2.8 3.3-3.7 4.3-1 1-1.8 2.2-1.8 2.8 0 .5-.4 1-.9 1s-1.3.9-1.6 2c-.3 1.1-1.1 2-1.6 2s-2.2 1.2-3.7 2.6c-2.3 2.3-2.4 2.5-.3 1.1 1.3-.8 2.9-1.3 3.6-1.1.7.3 2.6-1.7 4.5-4.8 3.8-6.2 19.8-22.2 25.8-25.8 4.4-2.6 5.3-4 2.6-4-.8 0-1.2.4-.9 1zm-104.4 6c.3 3.8-.1 4.9-1.8 4.4-1.1-.4-1.4-.3-.7.3.6.4 1.4 2.1 1.8 3.8.5 2.2.4 2.6-.4 1.5-.8-1.2-1-.9-1 1.4 0 2.7.1 2.8 2.3 1.4 2.6-1.8 3.2-7.9 1.1-11.8-.8-1.4-1.4-1.8-1.3-1zM167 48.9c1.3.9 1.3 1.2.1 2s-1.2 1.2.2 2.5c1.6 1.6 1.6 2.1.2 6.8-.6 2.5-1.6 3.2-3.7 3-.3-.1-.8.5-1.1 1.2-.4.9.2 1.2 2 .8 1.3-.3 2.7-1.1 3-1.8.3-.8.9-1.1 1.4-.8.5.3.9.2 1-.3.5-8.1 1-10.6 2.3-11.9 2.2-2.1 2-2.7-.4-1.2-1.1.7-2 1.8-2 2.5s-.4 1.3-1 1.3c-.5 0-.9-1-.7-2.1.1-1.2-.5-2.4-1.3-2.6-1.3-.4-1.3-.3 0 .6zm-7.6 3.3c-.4.7-.4 1 .1.6.4-.4 1.5-.2 2.3.5 1.2 1 1.4.9 1.1-.2-.7-2-2.6-2.5-3.5-.9zm15.8 6.8c0 1.4.2 1.9.5 1.2.2-.6.2-1.8 0-2.5-.3-.6-.5-.1-.5 1.3zm-20.6 2.5c-.4 1.6-1.3 3.3-1.9 3.7-.8.5-.9 1-.1 1.8 1.8 1.8 4.1-2 3.4-5.5l-.6-3-.8 3zm21.4 1c-.1.5-.2 1.3-.1 1.7 0 .4-.7.4-1.7.1-.9-.3-1.4-.2-.9.2.4.5 0 1.7-1 2.7-2.1 2.3-.2 2.3 2.7 0 1.4-1.1 2-2.5 1.7-3.7-.2-1.1-.6-1.6-.7-1zm7.3 2c-1.5 1.7-1.7 2.9-.3 2 .6-.3 1-.1 1 .4 0 .6-.7 1.1-1.5 1.1s-1.5.6-1.5 1.2c-.1.7-.7.2-1.5-1.2l-1.3-2.5-1.1 2.8c-.6 1.6-1.5 2.6-2.1 2.2-.5-.3-1.8.3-2.9 1.4-1.9 1.9-1.9 1.9.7 1.6 1.5-.2 2.9-.5 3.2-.6.5-.2 2.6-.4 6.8-.7 1.4-.1 2-.6 1.6-1.3-.3-.6-.1-2.2.7-3.5 1.5-2.8.1-5-1.8-2.9zm-17.6 5c-.4.8-.2 1.7.3 2 .6.4 1 .4 1 .1 0-.2.3-1.1.6-2 .3-.9.2-1.6-.4-1.6-.5 0-1.2.7-1.5 1.5zm-28.9.2c.7.3 1.6.2 1.9-.1.4-.3-.2-.6-1.3-.5-1.1 0-1.4.3-.6.6zm3.7.3c-.3.5.1 1 1 1s1.3-.5 1-1c-.3-.6-.8-1-1-1-.2 0-.7.4-1 1zm11.9 1.1l-1.9 2.1 3.3-.7c2.2-.4 3.2-.3 3.2.5s.9 1 2.4.6c1.3-.3 2.6-.2 2.8.4.2.6.8.6 1.8 0 1.3-.8 1.2-1-.3-1-1 0-1.5-.5-1.2-1 .4-.7-.4-.9-2.1-.6-1.7.3-3.5 0-4.4-.9-1.5-1.4-1.9-1.3-3.6.6zm-7.1.6c.9.2 2.3.2 3 0 .6-.3-.1-.5-1.8-.5-1.6 0-2.2.2-1.2.5zm21.8 1.2c-.8.6-.9 1.1-.3 1.5.6.3 1.4.1 1.7-.5.9-1.4.2-2-1.4-1zm322.3 96.5c.4 1 .1 2.5-.5 3.2-.7.8-.7 1.4-.1 1.4 2.2 0 3.2-2.6 1.6-4.6-1.5-1.8-1.5-1.8-1 0zm2.8 4.2c-1.1 1.2-1.1 1.8-.1 3s.9 1.3-.5.8c-1.2-.5-1.5-.2-1 1 .3.9.2 1.6-.4 1.6-.6 0-1.9.3-2.9.6-1.6.5-1.6.4.1-1 1.7-1.4 1.7-1.6.4-1.6-.9 0-2 .4-2.3 1-.3.5-1.5 1-2.6 1-1 0-1.9.4-1.9 1 0 .5.4 1 .8 1s1.5 1.3 2.5 2.9c1.2 2.1 2.2 2.8 3.7 2.4 1.1-.3 2 0 2 .6s-.7 1.1-1.5 1.1c-1.3 0-1.2.5.2 3.5.9 1.9 2.1 3.5 2.6 3.5.6 0 .5.5-.1 1.2-.5.7-.8 2.3-.6 3.5.3 1.5-.1 2.3-1 2.3-.8 0-2.2.7-3 1.6-.9.8-1.6 1.1-1.6.5 0-.6-1.1-1.1-2.4-1.1-1.9 0-2.3.4-1.9 2 .3 1.1.9 2 1.4 2 .5 0 1.5 1.1 2.1 2.5 1.2 2.7 3.8 3.4 3.8 1 0-.8.5-1.5 1.2-1.5.6 0 .3-.9-.7-2s-1.5-2.3-1.1-2.7c.4-.4 1.8.5 3.1 2.1 2.3 2.7 2.4 2.7 3.5.7.8-1.6.8-2.1-.2-2.1-.9-.1-.8-.5.3-1.3.9-.7 1.9-2.1 2.1-3.2.2-1.1 1-1.9 1.6-1.8.7.2 1.2 0 1.2-.5-.1-1.3-2.7-4.2-3.9-4.2-.6 0-1.1-1.5-1.1-3.5 0-1.9-.4-3.5-1-3.5-.5 0-.7-.7-.4-1.5.4-.8 1.1-1.5 1.6-1.5.6 0 .8.7.4 1.5-.3.9 0 1.5 1 1.5 1.2 0 1.5-.6 1-2.3-.3-1.2-.6-2.6-.6-3.1s-.6-.4-1.2.1c-.7.6-2.2 1.3-3.3 1.6-1.9.7-1.9.6-.2-.7 1.8-1.4 1.8-1.4 0-1.9-1.2-.4-1-.5.6-.4 1.9.2 2.5-.3 2.6-2.1.1-1.3-.2-2.5-.6-2.7-.4-.3-.5-1.4-.2-2.5.6-2.4.3-2.5-1.5-.4zm4.8 24.6c0 .5-.9.4-2-.2-1.1-.6-2-1.2-2-1.4 0-.2.9-.2 2 .1 1.1.3 2 .9 2 1.5zm-1.5 10.3c-.3.8-.7 2.2-1 3-.2.8-.2 2.2.2 3.1.5 1.3 1 .9 2.4-1.7 2.2-4.2 2.4-6.1.3-3.4-1.6 2-1.6 2-.9-.3.3-1.2.4-2.2 0-2.2-.3 0-.8.7-1 1.5zm-18.2.2c-.7.2-1.3 1.1-1.3 1.9 0 1 1.1 1.4 3.8 1.3 3 0 3.3-.2 1.7-.9-1.1-.5-1.4-.9-.7-.9.7-.1 1-.6.7-1.1-.7-1.1-2.2-1.2-4.2-.3z"/><path d="M489 212c0 .5.4 1 .9 1 .6 0 1.3-.5 1.6-1 .3-.6-.1-1-.9-1-.9 0-1.6.4-1.6 1zm-10 2c-1.2.8-1.1 1 .5 1s1.7.2.6.9c-.8.5-1.9.7-2.5.5-.6-.2-2.8 1.4-5 3.6-4.6 4.7-4.1 5.3.8.9 2-1.7 4-2.8 4.6-2.4.5.3 1 .1 1-.6 0-1.8 1.7.1 2.3 2.6.3 1.1.4 0 .2-2.3-.4-5.1-.6-5.4-2.5-4.2zm7.4 1.6c.3.9.6 2.2.6 3 0 .8.7 1.4 1.5 1.4s1.5-.9 1.5-2c0-1.3.7-2 2-2 3.9 0 1.9-1.7-2.1-1.8-3.4-.2-4 .1-3.5 1.4z"/><path d="M491.8 218.2c.9.9 1.5.9 2.4 0 .9-.9.7-1.2-1.2-1.2s-2.1.3-1.2 1.2zm-5.3 5.4c-1.5 2.3-1.5 3-.4 5.3.7 1.4 1.6 3.4 1.9 4.3.5 1.6.7 1.6 2.9-.1 1.8-1.4 2.1-2 1.1-2.6-.9-.5-1.1-.4-.6.3.4.7.1 1.2-.8 1.2-.8 0-1.3-.8-1.1-1.8.1-.9-.2-2.8-.7-4.1-.7-2-.6-2.3 1.1-1.8 1 .2 2.5.1 3.2-.4 1-.6.8-.9-.8-.9-1.3 0-2.3-.5-2.3-1 0-1.8-1.8-1-3.5 1.6zm-9.3 3c.2 1 1.1 1.8 1.9 1.8.9-.1 1.6.4 1.6 1.1 0 .7-.6 1.1-1.4.8-.8-.3-.2 2 1.7 6.5 2.4 5.7 2.8 7.6 2 9.6-.5 1.4-.6 2.6-.1 2.6s1.1-.7 1.5-1.5c.3-.8 1.2-1.5 2.1-1.5 1.8 0 1.9-1.3.3-4.1-1.1-1.7-1-2.2.3-3.2 1.5-1.1 1.5-1.5.3-3.1-.7-1.1-1.1-2.4-.7-2.9.4-.6 0-.8-.9-.5-1.1.5-1.4 0-1-1.9.4-2 .2-2.4-.8-1.8-1 .6-1.2.4-.7-.8.4-1 .1-1.7-.6-1.7s-2.3-.3-3.6-.7c-1.9-.5-2.2-.2-1.9 1.3zm-4.4 4.1c.6.2 1.8.2 2.5 0 .6-.3.1-.5-1.3-.5-1.4 0-1.9.2-1.2.5zm16.7 9.4c-.4.6-.5 1.2-.2 1.5.2.3.7-.2 1-1.1.7-1.7.1-2-.8-.4zm-16.5 1.8c0 .5.7 1.4 1.5 2.1 1.6 1.4 1.8 1 .9-1.4-.6-1.7-2.4-2.2-2.4-.7zm13.1 6.7c0 1.1.3 1.4.6.6.3-.7.2-1.6-.1-1.9-.3-.4-.6.2-.5 1.3zm-8.1 1.9c0 1.8-1.3 6.4-3.1 11.3-.5 1.2-1.4 2.1-2 2-.7-.2-1.5 1-2 2.5-.7 2.5-.5 2.8 1.4 2.5 2.6-.4 4.9-4.6 5-9.3.1-1.9.4-3.2.8-2.9 1 .6 1.8-6 .8-7.1-.6-.5-.9-.2-.9 1z"/></svg>