<?xml version="1.0" standalone="no"?>
<!DOCTYPE svg PUBLIC "-//W3C//DTD SVG 20010904//EN"
 "http://www.w3.org/TR/2001/REC-SVG-20010904/DTD/svg10.dtd">
<svg version="1.0" xmlns="http://www.w3.org/2000/svg"
 width="1280.000000pt" height="1280.000000pt" viewBox="0 0 1280.000000 1280.000000"
 preserveAspectRatio="xMidYMid meet">
<metadata>
Created by potrace 1.16, written by Peter Selinger 2001-2019
</metadata>
<g transform="translate(0.000000,1280.000000) scale(0.100000,-0.100000)"
fill="#000000" stroke="none">
<path d="M3595 12785 c-181 -49 -239 -92 -555 -412 -287 -290 -318 -331 -367
-478 -23 -71 -26 -96 -26 -215 0 -119 3 -144 26 -215 57 -173 -106 -2 2526
-2638 l2426 -2427 -2436 -2438 -2436 -2437 -41 -85 c-54 -111 -72 -191 -72
-321 0 -160 36 -281 123 -409 37 -54 397 -422 514 -525 149 -131 290 -185 482
-185 129 0 209 18 321 71 l85 41 2942 2941 2941 2942 41 85 c54 113 71 191 71
325 0 159 -31 266 -116 395 -31 47 -848 870 -2951 2971 l-2908 2907 -95 46
c-52 25 -122 53 -155 61 -74 19 -271 19 -340 0z"/>
</g>
</svg>
